<svg t="1694842290726" class="icon" viewBox="0 0 1024 1024" version="1.1" xmlns="http://www.w3.org/2000/svg" p-id="10953" width="200" height="200"><path d="M778.830769 1024H245.169231l-76.327385-75.224615 207.872-420.155077V303.025231h31.507692v232.999384l-201.019076 406.291693 50.884923 50.176h507.82523l50.963693-50.176-201.019077-406.370462V303.025231h31.507692V528.541538L855.236923 948.775385 778.830769 1024z" fill="" p-id="10954"></path><path d="M667.687385 313.737846H587.421538v-31.507692h48.758154v-69.238154H387.820308v69.238154h102.951384v31.507692H356.312615V181.484308h311.37477v132.253538zM399.163077 514.126769h101.769846v31.507693H399.163077zM276.992 917.346462h254.424615v31.507692h-254.424615zM495.812923 594.786462h101.769846v31.507692H495.812923zM495.812923 675.367385h101.769846v31.507692H495.812923zM495.812923 756.027077h101.769846v31.507692H495.812923zM495.812923 836.686769h101.769846v31.507693H495.812923z" fill="" p-id="10955"></path><path d="M495.812923 917.346462h101.769846v31.507692H495.812923zM719.675077 917.346462h96.649846v31.507692H719.675077zM834.835692 836.529231l-20.873846-23.630769c3.780923-3.308308 7.483077-6.774154 11.185231-10.24l21.740308 22.843076c-3.938462 3.702154-7.955692 7.404308-12.051693 11.027693zM869.415385 802.500923l-23.158154-21.346461c6.774154-7.325538 13.390769-14.966154 19.692307-22.764308l24.497231 19.771077c-6.695385 8.349538-13.784615 16.541538-21.031384 24.339692z m-715.224616-0.787692c-7.246769-7.876923-14.257231-15.753846-20.952615-24.418462l24.576-19.771077c6.301538 7.876923 12.839385 15.753846 19.613538 22.921846z m756.184616-49.309539l-25.836308-18.038154c5.750154-7.876923 11.264-16.699077 16.462769-25.284923l26.939077 16.305231c-6.065231 9.137231-11.972923 18.195692-18.116923 27.017846zM113.624615 751.458462c-6.144-8.743385-12.051692-17.801846-17.565538-27.017847l27.017846-16.226461c5.12 8.585846 10.633846 17.014154 16.384 25.206154z m829.51877-54.193231l-28.041847-14.414769a503.571692 503.571692 0 0 0 12.918154-27.175385l28.908308 12.524308c-4.253538 9.846154-8.900923 19.613538-13.784615 29.065846zM80.384 696.32c-4.883692-9.531077-9.452308-19.377231-13.705846-29.223385l28.908308-12.445538c3.938462 9.216 7.876923 18.353231 12.839384 27.254154zM968.664615 638.030769l-29.696-10.476307c3.387077-9.452308 6.380308-19.062154 9.137231-28.672l30.326154 8.507076c-2.914462 10.397538-6.144 20.716308-9.767385 30.641231z m-913.723077-1.102769C51.790769 627.003077 48.167385 616.684308 45.331692 606.523077L75.421538 597.937231c2.678154 9.609846 5.671385 19.298462 8.979693 28.672z m931.052308-60.888615l-30.798769-6.380308c1.969231-9.767385 3.702154-19.771077 5.041231-29.617231l31.507692 4.253539c-1.732923 10.791385-3.544615 21.425231-5.750154 31.901538zM37.769846 575.015385C36.036923 564.460308 33.831385 553.826462 32.413538 543.507692l31.507693-4.174769c1.339077 9.846154 3.072 19.849846 5.041231 29.617231z m956.967385-62.464l-31.507693-2.205539c0.708923-9.846154 1.024-20.007385 1.024-30.089846h31.507693c0.078769 10.791385-0.315077 21.582769-1.024 32.216615zM29.184 511.133538C28.16 500.657231 28.16 489.944615 28.16 479.468308l31.507692-0.551385v0.551385c0 9.846154 0 19.771077 0.945231 29.538461z m934.203077-60.967384a477.499077 477.499077 0 0 0-2.914462-30.011077l31.507693-4.096c1.417846 10.555077 2.520615 21.346462 3.229538 32.059077zM60.691692 448.984615l-31.507692-2.126769c0.708923-10.712615 1.811692-21.504 3.308308-32.059077l31.507692 4.253539c-1.575385 9.767385-2.599385 19.771077-3.308308 29.932307z m894.739693-58.28923c-1.969231-9.767385-4.332308-19.613538-6.931693-29.223385l30.326154-8.349538c2.835692 10.318769 5.356308 20.873846 7.876923 31.507692zM68.804923 389.277538l-30.798769-6.380307c2.126769-10.476308 4.726154-21.031385 7.876923-31.507693l30.326154 8.428308c-2.993231 9.846154-5.356308 19.692308-7.404308 29.459692z m870.715077-56.713846c-3.308308-9.373538-7.010462-18.825846-10.948923-28.041846l29.065846-12.445538c4.174769 9.846154 7.876923 20.007385 11.657846 30.089846zM84.952615 331.382154l-29.696-10.476308c3.544615-10.161231 7.483077-20.164923 11.736616-29.932308l28.908307 12.445539c-3.938462 9.137231-7.640615 18.510769-10.948923 27.963077z m830.857847-54.114462c-4.568615-8.900923-9.452308-17.723077-14.651077-26.308923l27.017846-16.226461c5.513846 9.216 10.791385 18.668308 15.753846 28.199384z m-807.069539-1.024l-27.963077-14.414769C85.661538 252.061538 91.175385 242.845538 96.452923 233.708308l26.939077 16.30523c-5.12 8.507077-10.082462 17.801846-14.651077 26.230154z m776.113231-50.569846c-5.750154-7.876923-11.815385-16.384-18.038154-24.103384l24.576-19.692308c6.695385 8.270769 13.154462 17.014154 19.298462 25.836308z m-744.999385-0.866461l-25.836307-18.038154c6.065231-8.743385 12.603077-17.408 19.298461-25.757539l24.576 19.771077c-6.301538 7.719385-12.366769 15.832615-18.038154 24.024616zM847.36 178.727385c-6.774154-7.404308-13.863385-14.651077-21.110154-21.504l21.819077-22.764308c7.876923 7.325538 15.281231 15.044923 22.528 23.000615z m-669.538462-0.787693l-23.630769-21.346461c7.246769-7.876923 14.808615-15.753846 22.528-23.000616l21.740308 22.843077c-7.089231 6.931692-14.178462 14.099692-20.637539 21.504z m626.294154-40.802461c-7.876923-6.380308-15.753846-12.681846-23.630769-18.510769l18.510769-25.521231c8.664615 6.301538 17.171692 12.996923 25.363693 19.849846z m-582.892307-0.708923l-20.164923-24.182154c8.270769-6.931692 16.856615-13.548308 25.442461-19.771077L244.854154 118.153846a397.863385 397.863385 0 0 0-23.788308 18.274462z m533.976615-34.737231a407.079385 407.079385 0 0 0-25.993846-15.202462l15.044923-27.726769c9.452308 5.12 18.747077 10.555077 27.805538 16.305231z m-485.376-0.630154l-16.777846-26.702769c9.058462-5.671385 18.353231-11.342769 27.805538-16.226462L295.975385 85.858462c-8.979692 4.804923-17.723077 9.924923-26.151385 15.202461z m432.521846-28.041846c-9.058462-4.253538-18.432-7.876923-27.648-11.657846l11.185231-29.459693c9.924923 3.780923 19.928615 7.876923 29.617231 12.445539zM322.835692 72.467692l-13.075692-28.672C319.606154 39.384615 329.531077 35.131077 339.456 31.507692l11.185231 29.459693c-9.294769 3.387077-18.668308 7.325538-27.805539 11.500307z m323.347693-20.952615c-9.609846-2.914462-19.377231-5.592615-28.987077-7.876923l7.168-30.72c10.397538 2.441846 20.795077 5.277538 31.507692 8.428308z m-267.106462 0l-9.137231-30.483692c10.318769-3.150769 20.795077-5.907692 31.507693-8.349539l7.168 30.72c-10.24 2.205538-19.849846 4.804923-29.538462 7.719385zM587.421538 37.730462c-9.846154-1.575385-19.849846-2.914462-29.853538-3.938462l3.150769-31.507692c10.633846 1.024 21.425231 2.520615 31.507693 4.253538z m-149.661538 0L432.64 6.459077c10.476308-1.732923 21.267692-3.150769 31.507692-4.174769l2.993231 31.507692c-9.531077 0.787692-19.613538 2.126769-29.380923 3.702154zM527.714462 31.507692H497.624615l-0.94523-31.507692h31.901538zM189.164308 836.529231l-11.972923-11.027693 21.740307-22.843076c3.623385 3.465846 7.404308 6.931692 11.185231 10.24z" fill="" p-id="10956"></path></svg>
