<svg width="49" height="29" viewBox="0 0 49 29" fill="none" xmlns="http://www.w3.org/2000/svg">
<path fill-rule="evenodd" clip-rule="evenodd" d="M4.27326 8.9C4.86192 8.9 5.42279 8.78301 5.93309 8.5714L12.2298 14.7601L6.2912 20.5969C5.6902 20.2798 5.00309 20.1 4.27326 20.1C1.9132 20.1 0 21.9804 0 24.3C0 26.6196 1.9132 28.5 4.27326 28.5C5.91307 28.5 7.33716 27.5922 8.05364 26.26H20.4347C21.1512 27.5922 22.5753 28.5 24.2151 28.5C26.5641 28.5 28.4704 26.6372 28.4882 24.3326L41.6049 17.648C42.3847 18.4677 43.4949 18.98 44.7267 18.98C47.0868 18.98 49 17.0996 49 14.78C49 12.4604 47.0868 10.58 44.7267 10.58C43.5867 10.58 42.5509 11.0188 41.7846 11.734L28.4807 4.95389C28.4858 4.8699 28.4884 4.78525 28.4884 4.7C28.4884 2.3804 26.5752 0.5 24.2151 0.5C22.3545 0.5 20.7716 1.66873 20.185 3.3H8.30335C7.71673 1.66873 6.13386 0.5 4.27326 0.5C1.9132 0.5 0 2.3804 0 4.7C0 7.0196 1.9132 8.9 4.27326 8.9ZM4.27326 6.1C5.05994 6.1 5.69767 5.4732 5.69767 4.7C5.69767 3.9268 5.05994 3.3 4.27326 3.3C3.48657 3.3 2.84884 3.9268 2.84884 4.7C2.84884 5.4732 3.48657 6.1 4.27326 6.1ZM27.3643 7.53898C26.5832 8.37557 25.4615 8.9 24.2151 8.9C23.6264 8.9 23.0656 8.78301 22.5553 8.5714L16.2586 14.7601L22.1972 20.5969C22.7982 20.2798 23.4853 20.1 24.2151 20.1C25.5584 20.1 26.7569 20.7092 27.5403 21.6617L40.4639 15.0755C40.457 14.9779 40.4535 14.8793 40.4535 14.78C40.4535 14.593 40.4659 14.4088 40.49 14.2282L27.3643 7.53898ZM20.4474 6.68335C20.3456 6.49689 20.2577 6.30199 20.185 6.1H8.30335C8.23072 6.30199 8.1428 6.49689 8.04098 6.68335L14.2442 12.7802L20.4474 6.68335ZM14.2442 16.74L8.21218 22.6686C8.32043 22.9208 8.40435 23.1855 8.46103 23.46H20.0273C20.084 23.1855 20.1679 22.9208 20.2762 22.6686L14.2442 16.74ZM4.27326 25.7C5.05994 25.7 5.69767 25.0732 5.69767 24.3C5.69767 23.5268 5.05994 22.9 4.27326 22.9C3.48657 22.9 2.84884 23.5268 2.84884 24.3C2.84884 25.0732 3.48657 25.7 4.27326 25.7ZM25.6395 4.7C25.6395 5.4732 25.0018 6.1 24.2151 6.1C23.4284 6.1 22.7907 5.4732 22.7907 4.7C22.7907 3.9268 23.4284 3.3 24.2151 3.3C25.0018 3.3 25.6395 3.9268 25.6395 4.7ZM24.2151 25.7C25.0018 25.7 25.6395 25.0732 25.6395 24.3C25.6395 23.5268 25.0018 22.9 24.2151 22.9C23.4284 22.9 22.7907 23.5268 22.7907 24.3C22.7907 25.0732 23.4284 25.7 24.2151 25.7ZM46.1512 14.78C46.1512 15.5532 45.5134 16.18 44.7267 16.18C43.9401 16.18 43.3023 15.5532 43.3023 14.78C43.3023 14.0068 43.9401 13.38 44.7267 13.38C45.5134 13.38 46.1512 14.0068 46.1512 14.78Z" fill="#1B3FFF"/>
</svg>
