<svg t="1695265557555" class="icon" viewBox="0 0 1024 1024" version="1.1" xmlns="http://www.w3.org/2000/svg" p-id="5936" width="200" height="200"><path d="M899 65H125a60 60 0 0 0-60 60v774a60 60 0 0 0 60 60h774a60 60 0 0 0 60-60V125a60 60 0 0 0-60-60zM339.64 236.22a34.45 34.45 0 0 1 34.47-34.47h68.94a34.47 34.47 0 0 1 34.48 34.47v206.83a34.48 34.48 0 0 1-34.48 34.48h-68.94a34.47 34.47 0 0 1-34.47-34.48z m-130.89 69h82.95v68.94h-82.95c-22.91 0-41.47-15.44-41.47-34.47s18.56-34.52 41.47-34.52z m289.72 413.62h-294.4c-20.32 0-36.79-15.44-36.79-34.48s16.47-34.47 36.79-34.47h294.4z m185.89 68.94a34.47 34.47 0 0 1-34.47 34.47H581a34.47 34.47 0 0 1-34.48-34.47V580.94A34.48 34.48 0 0 1 581 546.47h68.94a34.47 34.47 0 0 1 34.47 34.47z m160.22-79c-7.77 6.46-18.32 10.1-29.31 10.1h-82.91v-69h82.91c22.9 0 41.45 15.44 41.45 34.47 0 9.16-4.36 17.92-12.14 24.39z m-24.66-334.67H525.53v-68.94h294.39a38.13 38.13 0 0 1 26 10.09 33.41 33.41 0 0 1 10.77 24.38c0.03 19.04-16.44 34.47-36.77 34.47z" p-id="5937"></path></svg>
