<svg t="1694854727442" class="icon" viewBox="0 0 1024 1024" version="1.1" xmlns="http://www.w3.org/2000/svg" p-id="20510" width="200" height="200"><path d="M787.69 960H236.31c-41.33 0-68.92-27.56-68.92-68.92V767.03L477.54 512 167.38 256.97V132.92c0-41.36 27.6-68.92 68.92-68.92h551.38c41.33 0 68.92 27.56 68.92 68.92v124.05L546.46 512l310.15 255.03v124.05c0.01 41.36-27.59 68.92-68.92 68.92zM512 574.02L236.31 801.46v89.59h551.38v-89.59L512 574.02z m-275.69-441.1v89.59L512 449.94l275.69-227.43v-89.59H236.31z" p-id="20511"></path></svg>
